<svg width="122" height="31" viewBox="0 0 122 31" fill="none" xmlns="http://www.w3.org/2000/svg">
<path d="M6.76 30.44C7.53333 30.44 8.24 30.3533 8.88 30.18C9.52 30.0067 10.1 29.7867 10.62 29.52C11.14 29.2533 11.6 28.9667 12 28.66C12.4 28.3533 12.7467 28.0667 13.04 27.8L13.6 30H17.6V15.96C17.6 14.9733 17.5 14.04 17.3 13.16C17.1 12.28 16.72 11.5133 16.16 10.86C15.6 10.2067 14.8133 9.69333 13.8 9.32C12.7867 8.94667 11.48 8.76 9.88 8.76C8.81334 8.76 7.84667 8.84 6.98 9C6.11333 9.16 5.34 9.34667 4.66 9.56C3.98 9.77333 3.39333 10.0067 2.9 10.26C2.40667 10.5133 2 10.7333 1.68 10.92V15.24C1.97334 15.0267 2.37333 14.7667 2.88 14.46C3.38667 14.1533 3.96667 13.8467 4.62 13.54C5.27333 13.2333 5.98 12.9733 6.74 12.76C7.5 12.5467 8.29333 12.44 9.12 12.44C10.08 12.44 10.9067 12.6 11.6 12.92C12.2933 13.24 12.64 13.84 12.64 14.72V15.56C12.64 15.8533 12.5933 16.0467 12.5 16.14C12.4067 16.2333 12.1467 16.3467 11.72 16.48L5.76 18.48C4.61333 18.88 3.68667 19.3267 2.98 19.82C2.27333 20.3133 1.73334 20.8333 1.36 21.38C0.986669 21.9267 0.733336 22.4867 0.600002 23.06C0.466669 23.6333 0.400002 24.1867 0.400002 24.72C0.400002 25.5467 0.560001 26.3133 0.880001 27.02C1.2 27.7267 1.64 28.3333 2.2 28.84C2.76 29.3467 3.42667 29.74 4.2 30.02C4.97334 30.3 5.82667 30.44 6.76 30.44ZM8.12 26.84C7.90667 26.84 7.64667 26.8067 7.34 26.74C7.03334 26.6733 6.74 26.5467 6.46 26.36C6.18 26.1733 5.94 25.9133 5.74 25.58C5.54 25.2467 5.44 24.8267 5.44 24.32C5.44 23.5733 5.64667 22.9467 6.06 22.44C6.47334 21.9333 7.2 21.4933 8.24 21.12L11.36 20C11.8133 19.84 12.1067 19.7333 12.24 19.68C12.3733 19.6267 12.5067 19.5333 12.64 19.4V24.52C11.6267 25.5333 10.72 26.1733 9.92 26.44C9.12 26.7067 8.52 26.84 8.12 26.84ZM24.63 6.12V1.16H19.67V6.12H24.63ZM24.63 30V9.2H19.67V30H24.63ZM31.82 30V19.76C31.82 18.72 32.04 17.8067 32.48 17.02C32.92 16.2333 33.4667 15.58 34.12 15.06C34.7733 14.54 35.4667 14.1467 36.2 13.88C36.9333 13.6133 37.58 13.48 38.14 13.48H38.78C39.1 13.48 39.3667 13.5067 39.58 13.56V8.88C39.42 8.82667 39.26 8.79333 39.1 8.78C38.94 8.76667 38.7133 8.76 38.42 8.76C37.6733 8.76 36.9733 8.88 36.32 9.12C35.6667 9.36 35.06 9.67334 34.5 10.06C33.94 10.4467 33.4267 10.9 32.96 11.42C32.4933 11.94 32.06 12.48 31.66 13.04V9.2H26.86V30H31.82ZM50.29 30C52.1833 30 53.81 29.7867 55.17 29.36C56.53 28.9333 57.6567 28.36 58.55 27.64C59.4433 26.92 60.1033 26.0733 60.53 25.1C60.9567 24.1267 61.17 23.08 61.17 21.96C61.17 20.6 60.9367 19.4933 60.47 18.64C60.0033 17.7867 59.4367 17.0933 58.77 16.56C58.1033 16.0267 57.3967 15.6333 56.65 15.38C55.9033 15.1267 55.25 14.92 54.69 14.76C55.17 14.6 55.7433 14.38 56.41 14.1C57.0767 13.82 57.71 13.42 58.31 12.9C58.91 12.38 59.4233 11.7133 59.85 10.9C60.2767 10.0867 60.49 9.06667 60.49 7.84C60.49 6.64 60.2767 5.63333 59.85 4.82C59.4233 4.00667 58.8767 3.33333 58.21 2.8C57.5433 2.26667 56.7967 1.86 55.97 1.58C55.1433 1.3 54.33 1.09333 53.53 0.959999C52.73 0.826666 51.9833 0.746668 51.29 0.720001C50.5967 0.693335 50.0367 0.68 49.61 0.68H40.21V30H50.29ZM49.61 12.64H45.73V5H50.09C50.3833 5 50.8033 5.02 51.35 5.06C51.8967 5.1 52.4433 5.23333 52.99 5.46C53.5367 5.68667 54.0167 6.04667 54.43 6.54C54.8433 7.03333 55.05 7.74667 55.05 8.68C55.05 8.92 55.0033 9.26 54.91 9.7C54.8167 10.14 54.5833 10.58 54.21 11.02C53.8367 11.46 53.29 11.84 52.57 12.16C51.85 12.48 50.8633 12.64 49.61 12.64ZM49.17 25.68H45.73V16.88H49.53C50.73 16.88 51.7167 17.0133 52.49 17.28C53.2633 17.5467 53.87 17.8933 54.31 18.32C54.75 18.7467 55.0567 19.22 55.23 19.74C55.4033 20.26 55.49 20.7867 55.49 21.32C55.49 22.8933 54.8967 24.0133 53.71 24.68C52.5233 25.3467 51.01 25.68 49.17 25.68ZM67.2 30.44C67.9733 30.44 68.68 30.3533 69.32 30.18C69.96 30.0067 70.54 29.7867 71.06 29.52C71.58 29.2533 72.04 28.9667 72.44 28.66C72.84 28.3533 73.1867 28.0667 73.48 27.8L74.04 30H78.04V15.96C78.04 14.9733 77.94 14.04 77.74 13.16C77.54 12.28 77.16 11.5133 76.6 10.86C76.04 10.2067 75.2533 9.69333 74.24 9.32C73.2267 8.94667 71.92 8.76 70.32 8.76C69.2533 8.76 68.2867 8.84 67.42 9C66.5533 9.16 65.78 9.34667 65.1 9.56C64.42 9.77333 63.8333 10.0067 63.34 10.26C62.8467 10.5133 62.44 10.7333 62.12 10.92V15.24C62.4133 15.0267 62.8133 14.7667 63.32 14.46C63.8267 14.1533 64.4067 13.8467 65.06 13.54C65.7133 13.2333 66.42 12.9733 67.18 12.76C67.94 12.5467 68.7333 12.44 69.56 12.44C70.52 12.44 71.3467 12.6 72.04 12.92C72.7333 13.24 73.08 13.84 73.08 14.72V15.56C73.08 15.8533 73.0333 16.0467 72.94 16.14C72.8467 16.2333 72.5867 16.3467 72.16 16.48L66.2 18.48C65.0533 18.88 64.1267 19.3267 63.42 19.82C62.7133 20.3133 62.1733 20.8333 61.8 21.38C61.4267 21.9267 61.1733 22.4867 61.04 23.06C60.9067 23.6333 60.84 24.1867 60.84 24.72C60.84 25.5467 61 26.3133 61.32 27.02C61.64 27.7267 62.08 28.3333 62.64 28.84C63.2 29.3467 63.8667 29.74 64.64 30.02C65.4133 30.3 66.2667 30.44 67.2 30.44ZM68.56 26.84C68.3467 26.84 68.0867 26.8067 67.78 26.74C67.4733 26.6733 67.18 26.5467 66.9 26.36C66.62 26.1733 66.38 25.9133 66.18 25.58C65.98 25.2467 65.88 24.8267 65.88 24.32C65.88 23.5733 66.0867 22.9467 66.5 22.44C66.9133 21.9333 67.64 21.4933 68.68 21.12L71.8 20C72.2533 19.84 72.5467 19.7333 72.68 19.68C72.8133 19.6267 72.9467 19.5333 73.08 19.4V24.52C72.0667 25.5333 71.16 26.1733 70.36 26.44C69.56 26.7067 68.96 26.84 68.56 26.84ZM84.83 30V0.68H79.87V30H84.83ZM94.9 30.44C95.4067 30.44 95.84 30.4267 96.2 30.4C96.56 30.3733 96.9 30.3333 97.22 30.28V26.52C97.0067 26.5733 96.7867 26.6133 96.56 26.64C96.3333 26.6667 96.0733 26.68 95.78 26.68C95.22 26.68 94.7733 26.6 94.44 26.44C94.1067 26.28 93.8533 26.0667 93.68 25.8C93.5067 25.5333 93.4 25.22 93.36 24.86C93.32 24.5 93.3 24.1333 93.3 23.76V12.96H97.06V9.2H93.3V2.36H88.34V9.2H85.14V12.96H88.34V24.04C88.34 24.9467 88.42 25.7933 88.58 26.58C88.74 27.3667 89.06 28.0467 89.54 28.62C90.02 29.1933 90.6867 29.64 91.54 29.96C92.3933 30.28 93.5133 30.44 94.9 30.44ZM103.25 6.12V1.16H98.29V6.12H103.25ZM103.25 30V9.2H98.29V30H103.25ZM114.36 30.44C115.24 30.44 116.04 30.38 116.76 30.26C117.48 30.14 118.12 29.9867 118.68 29.8C119.24 29.6133 119.727 29.4267 120.14 29.24C120.553 29.0533 120.88 28.8933 121.12 28.76V24.36C120.8 24.6 120.44 24.8467 120.04 25.1C119.64 25.3533 119.2 25.5867 118.72 25.8C118.24 26.0133 117.707 26.1933 117.12 26.34C116.533 26.4867 115.88 26.56 115.16 26.56C114.253 26.56 113.48 26.42 112.84 26.14C112.2 25.86 111.66 25.5067 111.22 25.08C110.78 24.6533 110.44 24.1667 110.2 23.62C109.96 23.0733 109.773 22.5467 109.64 22.04C109.507 21.5333 109.42 21.06 109.38 20.62C109.34 20.18 109.32 19.84 109.32 19.6C109.32 18.7467 109.433 17.9067 109.66 17.08C109.887 16.2533 110.24 15.5067 110.72 14.84C111.2 14.1733 111.82 13.64 112.58 13.24C113.34 12.84 114.253 12.64 115.32 12.64C116.013 12.64 116.64 12.7133 117.2 12.86C117.76 13.0067 118.26 13.1867 118.7 13.4C119.14 13.6133 119.527 13.8467 119.86 14.1C120.193 14.3533 120.48 14.5867 120.72 14.8V10.28C120.507 10.1467 120.227 9.99333 119.88 9.82C119.533 9.64667 119.107 9.48 118.6 9.32C118.093 9.16 117.513 9.02666 116.86 8.92C116.207 8.81333 115.453 8.76 114.6 8.76C112.84 8.76 111.313 9.05333 110.02 9.64C108.727 10.2267 107.66 11.02 106.82 12.02C105.98 13.02 105.353 14.1733 104.94 15.48C104.527 16.7867 104.32 18.16 104.32 19.6C104.32 20.9867 104.513 22.3267 104.9 23.62C105.287 24.9133 105.887 26.0667 106.7 27.08C107.513 28.0933 108.553 28.9067 109.82 29.52C111.087 30.1333 112.6 30.44 114.36 30.44Z" fill="#152649"/>
</svg>
