<svg width="20" height="20" viewBox="0 0 20 20" fill="none" xmlns="http://www.w3.org/2000/svg">
    <path d="M10 0C4.48276 0 0 4.48276 0 10C0 12.7586 1.09189 15.3448 3.10339 17.2414C4.94247 19.023 7.41379 20 10 20C12.5862 20 15.0001 19.023 16.8966 17.2414C18.9081 15.3448 20 12.7586 20 10C19.9425 4.48276 15.4598 0 10 0ZM10 0.804598C15.0575 0.804598 19.1954 4.94253 19.1954 10C19.1954 12.2414 18.3908 14.3103 16.954 15.977C16.8965 15.5747 16.6092 15.2299 16.2644 15L12.4138 12.7586C12.2414 12.6437 12.069 12.4138 12.069 12.1839V12.0115C12.069 11.7816 12.1839 11.6092 12.3563 11.4943C13.4483 10.6897 14.0804 9.48276 14.0804 8.10345V5.8046C14.0804 4.1954 13.046 2.98851 11.2069 2.52874C10.3448 2.29885 9.4828 2.29885 8.62073 2.52874C6.78165 2.98851 5.74707 4.1954 5.74707 5.8046V8.10345C5.74707 9.42529 6.37936 10.6897 7.47131 11.4943C7.64373 11.6092 7.75867 11.8391 7.75867 12.0115V12.1264C7.75867 12.3563 7.64371 12.5862 7.41382 12.7011L3.6781 14.9425C3.2758 15.1724 3.046 15.5172 2.98853 15.977C1.55174 14.3103 0.74707 12.2414 0.74707 10C0.80454 4.88506 4.88506 0.804598 10 0.804598ZM9.08044 19.1379C8.9655 19.1379 8.90804 19.1379 8.79309 19.0805C8.62068 19.0805 8.39079 19.023 8.21838 19.023C8.10344 19.023 7.98849 18.9655 7.87354 18.9655C7.70113 18.908 7.52874 18.908 7.35632 18.8506C7.24138 18.7931 7.12642 18.7931 7.01147 18.7356C6.83906 18.6782 6.72418 18.6207 6.55176 18.5632C6.43682 18.5057 6.32185 18.4483 6.20691 18.3908C6.03449 18.3333 5.91948 18.2759 5.74707 18.2184C5.63212 18.1609 5.51728 18.1035 5.40234 18.046C5.2874 17.9885 5.11494 17.8736 5 17.8161C4.88506 17.7586 4.77009 17.6437 4.65515 17.5862C4.59768 17.4138 4.48274 17.3563 4.3678 17.2414C4.25285 17.1839 4.13791 17.069 4.08044 16.954C3.9655 16.8965 3.90804 16.7816 3.79309 16.7241V16.2069C3.79309 15.977 3.90806 15.7471 4.13794 15.6322L7.98853 13.4483C8.4483 13.2184 8.7356 12.7011 8.7356 12.1839V12.069C8.7356 11.6092 8.50569 11.1494 8.10339 10.8621C7.24132 10.2299 6.66663 9.1954 6.66663 8.10345V5.8046C6.66663 4.1954 7.87359 3.56322 8.90808 3.27586C9.6552 3.10345 10.3448 3.10345 11.0919 3.27586C12.1264 3.56322 13.3334 4.1954 13.3334 5.8046V8.10345C13.3334 9.1954 12.8161 10.2299 11.8966 10.8621C11.4943 11.1494 11.2644 11.5517 11.2644 12.069V12.2414C11.2644 12.7586 11.5517 13.2184 11.954 13.5057L15.8046 15.7471C16.0344 15.8621 16.1494 16.092 16.1494 16.3218V16.7816C16.0345 16.8966 15.977 16.954 15.8621 17.0115C15.7471 17.1264 15.6322 17.1839 15.5747 17.2414C15.4598 17.3563 15.3448 17.4138 15.1724 17.5287C15.0574 17.5862 14.9426 17.7011 14.8276 17.7586C14.7127 17.8161 14.5402 17.931 14.4253 17.9885C14.3103 18.046 14.1954 18.1034 14.0804 18.1609C13.9655 18.2184 13.793 18.2759 13.6781 18.3333C13.5632 18.3908 13.4483 18.4483 13.3334 18.5057C13.161 18.5632 13.046 18.6207 12.8735 18.6782C12.7586 18.7356 12.6436 18.7356 12.5287 18.7931C12.3563 18.8506 12.1839 18.8506 12.0115 18.908C11.8965 18.908 11.7816 18.9655 11.6666 18.9655C11.4942 19.023 11.2643 19.023 11.0919 19.023C10.977 19.023 10.9195 19.0805 10.8046 19.0805C10.5172 19.0805 10.2299 19.1379 9.9425 19.1379C9.65514 19.1379 9.3678 19.1379 9.08044 19.1379Z" fill="#7E7E7E"/>
</svg>