<svg width="20" height="20" viewBox="0 0 20 20" fill="none" xmlns="http://www.w3.org/2000/svg">
    <path d="M19.4834 17.0988L14.7975 12.3457C16.8321 9.19753 16.4006 5 13.7494 2.34568C12.208 0.864197 10.1732 0 8.01526 0C5.8573 0 3.88431 0.864197 2.3429 2.34568C0.863155 3.88889 0 5.8642 0 8.02469C0 10.1852 0.863155 12.1605 2.3429 13.7037C3.88431 15.2469 5.8573 16.0494 8.01526 16.0494C9.55667 16.0494 11.0365 15.6173 12.3313 14.7531L17.0787 19.5062C17.387 19.8148 17.8186 20 18.3119 20C18.7435 20 19.1751 19.8148 19.545 19.5062C20.1616 18.8889 20.1616 17.7778 19.4834 17.0988ZM2.95947 13.0864C1.60303 11.7284 0.863159 9.93827 0.863159 8.02469C0.863159 6.11111 1.60303 4.32099 2.95947 2.96296C4.3159 1.60494 6.10392 0.864197 8.01526 0.864197C9.92661 0.864197 11.7147 1.60494 13.0712 2.96296C15.4758 5.37037 15.8457 9.19753 13.996 12.037C13.9343 12.0988 13.9343 12.1605 13.8727 12.2222C13.6261 12.5309 13.3794 12.9012 13.0712 13.1481C12.9479 13.2716 12.7628 13.4568 12.6395 13.5802C12.6395 13.5802 12.5779 13.5802 12.5779 13.642C12.4546 13.7654 12.2696 13.8889 12.1462 14.0123C12.0846 14.0741 12.023 14.0741 11.9613 14.1358C10.7898 14.9383 9.43336 15.3086 8.01526 15.3086C6.10392 15.2469 4.3159 14.4444 2.95947 13.0864ZM18.9285 18.9506C18.7435 19.1358 18.5585 19.1975 18.3119 19.1975C18.0653 19.1975 17.8803 19.1358 17.6953 18.9506L13.0712 14.321L13.1328 14.2593C13.3178 14.0741 13.5644 13.8889 13.7494 13.7037C13.9344 13.5185 14.1192 13.3333 14.3042 13.0864L14.3658 13.0247L18.9901 17.6543C19.2367 18.0247 19.2367 18.5802 18.9285 18.9506Z" fill="#7E7E7E"/>
</svg>