<svg width="20" height="20" viewBox="0 0 20 20" fill="none" xmlns="http://www.w3.org/2000/svg">
    <path d="M17.0201 2.94798C16.6762 2.60116 16.3324 2.25434 15.9312 1.96532C15.8166 1.90752 15.702 1.79191 15.5874 1.7341C15.1863 1.44509 14.7278 1.15607 14.2693 0.982658C14.1547 0.924855 13.9828 0.867051 13.8109 0.809248C13.639 0.751444 13.5243 0.693641 13.3524 0.635838C13.2951 0.578034 13.1805 0.520231 13.0086 0.520231H12.9513C12.894 0.520231 12.7794 0.462427 12.722 0.462427C12.6647 0.462427 12.5502 0.404625 12.4929 0.404625C12.3782 0.346821 12.2063 0.34682 12.0917 0.289017C12.0344 0.289017 11.9198 0.231215 11.8625 0.231215C11.7479 0.231215 11.6332 0.17341 11.5186 0.17341C11.3467 0.17341 11.2321 0.115606 11.0602 0.115606C10.9456 0.115606 10.8309 0.115608 10.7736 0.0578041C10.7163 0.0578041 10.6591 0.0578041 10.6017 0.0578041C10.5444 0.0578041 10.4298 0.0578041 10.3725 0.0578041C10.3152 6.07222e-07 10.3152 0 10.2579 0C10.2006 0 10.2006 0 10.1432 0C10.0859 0 10.0859 0 10.0286 0H9.91406C9.85676 0 9.85675 0 9.79944 0C9.68483 0 9.51287 0 9.39825 0C9.28364 0 9.11174 6.07222e-07 8.99713 0.0578041C8.93982 0.0578041 8.88251 0.0578041 8.88251 0.0578041C8.71059 0.0578041 8.59599 0.115606 8.42407 0.115606C8.42407 0.115606 8.42407 0.115606 8.36676 0.115606C8.19484 0.115606 8.08025 0.17341 7.90833 0.17341H7.85101C7.7364 0.17341 7.67907 0.231215 7.56445 0.231215C7.44984 0.231215 7.39257 0.289017 7.27795 0.289017H7.22064C7.10603 0.34682 6.93407 0.346821 6.81946 0.404625C6.64754 0.462428 6.53294 0.520232 6.36102 0.578035C5.2722 0.98266 4.29801 1.56069 3.43842 2.31214C3.43842 2.42775 3.32378 2.54335 3.20917 2.65896C3.09455 2.77457 2.97997 2.89017 2.86536 3.00578C2.75074 3.12139 2.6361 3.23699 2.5788 3.3526C2.34957 3.58382 2.12035 3.81503 1.94843 4.04624C1.83381 4.21965 1.77648 4.33526 1.66187 4.45087C1.60456 4.56647 1.48998 4.68208 1.43268 4.85549C1.37537 4.9711 1.26074 5.0867 1.20343 5.26011C1.14612 5.37572 1.0888 5.54913 0.974182 5.66474C0.859569 5.83815 0.802296 6.06936 0.687683 6.24277C0.687683 6.35838 0.630365 6.47399 0.573059 6.5896C0.343833 7.22543 0.171931 7.86127 0.114624 8.49711C0.114624 8.61272 0.057312 8.72832 0.057312 8.84393C5.01052e-06 9.24855 0 9.65318 0 10.0578C0 10.4624 5.01052e-06 10.8671 0.057312 11.2139C0.057312 11.3295 0.114624 11.4451 0.114624 11.5607C0.229237 12.4277 0.458468 13.237 0.802307 13.9884C0.859614 14.104 0.916875 14.2775 0.974182 14.3931C1.03149 14.5665 1.14612 14.6821 1.20343 14.7977C1.26074 14.9133 1.37537 15.0867 1.43268 15.2023C1.48998 15.3179 1.60456 15.4335 1.66187 15.5491C1.77648 15.6647 1.83381 15.8382 1.94843 15.9538C2.12035 16.185 2.34956 16.474 2.52148 16.7052C2.6361 16.8208 2.75074 16.9364 2.86536 17.052C2.97997 17.1676 3.09455 17.2832 3.20917 17.3988C3.32378 17.5145 3.43836 17.5723 3.55298 17.6879C3.95412 18.0347 4.41258 18.3815 4.92834 18.6705C5.04296 18.7283 5.1576 18.7861 5.27222 18.8439C5.38683 18.9017 5.55873 19.0173 5.67334 19.0751C6.01718 19.2486 6.30374 19.3642 6.64758 19.4798C6.7622 19.5376 6.87679 19.5954 7.04871 19.5954C7.22062 19.6532 7.33522 19.711 7.50714 19.711C7.50714 19.711 7.50715 19.711 7.56445 19.711C7.73637 19.7688 7.85103 19.7688 8.02295 19.8266H8.0802C8.25212 19.8844 8.36678 19.8844 8.5387 19.8844C8.5387 19.8844 8.5387 19.8844 8.59601 19.8844C8.76793 19.8844 8.88252 19.9422 9.05444 19.9422C9.11175 19.9422 9.16907 19.9422 9.16907 19.9422C9.28368 19.9422 9.45558 19.9422 9.57019 20C9.6848 20 9.85676 20 9.97137 20C10.0287 20 10.0286 20 10.0859 20H10.1432C10.2006 20 10.2006 20 10.2579 20C10.3152 20 10.3152 20 10.3725 20C10.4298 20 10.4298 20 10.4871 20C10.5444 20 10.659 20 10.7163 20C10.8882 20 11.0029 20 11.1748 19.9422C11.3467 19.9422 11.4613 19.8844 11.6332 19.8844C11.7479 19.8844 11.8624 19.8266 11.9771 19.8266C12.149 19.7688 12.3783 19.7688 12.5502 19.711C12.6648 19.6532 12.7794 19.6532 12.894 19.5954C13.8682 19.3064 14.8424 18.8439 15.702 18.2659C15.8166 18.2081 15.9312 18.0925 16.0458 18.0347C16.447 17.7457 16.7908 17.3988 17.1346 17.052C18.9685 15.1445 20 12.659 20 10C19.8854 7.34104 18.8539 4.85549 17.0201 2.94798ZM11.4613 0.924856C11.7478 0.98266 12.0344 1.04046 12.3209 1.09827C12.4928 1.15607 12.6074 1.21387 12.7794 1.21387C12.894 1.27168 13.0659 1.32948 13.1805 1.38728C13.639 1.56069 14.0401 1.7341 14.4413 1.96532C14.5559 2.02312 14.6705 2.08093 14.7851 2.13873C15.5301 2.60116 16.2178 3.17919 16.7908 3.81503C16.9628 4.04624 17.192 4.27746 17.3639 4.50867C17.4785 4.62428 17.5358 4.73988 17.5931 4.85549C17.7651 5.08671 17.8797 5.37572 18.0516 5.60694C18.2808 6.01156 18.4527 6.41618 18.5673 6.82081C18.6819 7.05202 18.7393 7.34104 18.7966 7.63006C18.8539 7.80347 18.9112 7.97688 18.9112 8.15029C18.9112 8.26589 18.9685 8.3237 18.9685 8.43931C19.0258 8.84393 19.0831 9.19075 19.0831 9.59538H14.957C14.8997 6.35838 13.5816 3.3526 11.2894 1.04046C11.2321 0.982659 11.1748 0.924856 11.1175 0.867052C11.2321 0.867052 11.3467 0.924856 11.4613 0.924856ZM10.7736 18.4971C10.5444 18.7283 10.2579 18.9595 9.97137 19.1908C9.68484 18.9595 9.4556 18.7283 9.16907 18.4971C7.04872 16.3584 5.84526 13.4682 5.73065 10.4624H14.212C14.0974 13.4682 12.894 16.3006 10.7736 18.4971ZM5.73065 9.65318C5.84526 6.5896 7.04872 3.75723 9.16907 1.6185C9.39829 1.38728 9.68484 1.09827 9.97137 0.924856C10.2579 1.15607 10.4871 1.38728 10.7736 1.6185C12.894 3.75723 14.0974 6.6474 14.212 9.65318H5.73065ZM1.48999 6.47399C1.5473 6.35838 1.60456 6.24277 1.66187 6.12717C1.9484 5.54913 2.23496 5.0289 2.63611 4.50867C2.69342 4.39306 2.80805 4.27746 2.86536 4.16185C3.03728 3.93064 3.2665 3.69942 3.43842 3.52601C3.55303 3.41041 3.66761 3.2948 3.78223 3.23699C3.89684 3.06358 4.01149 3.00578 4.1261 2.89017C4.24071 2.77457 4.3553 2.71676 4.46991 2.60116C4.58452 2.48555 4.69917 2.42775 4.81378 2.36994C4.92839 2.31214 5.04298 2.19653 5.2149 2.13873C5.32952 2.08093 5.44411 1.96532 5.61603 1.90751C5.73064 1.84971 5.9026 1.79191 6.01721 1.7341C6.13182 1.6763 6.30372 1.6185 6.41833 1.56069C6.76218 1.44509 7.04874 1.27168 7.39258 1.21387C7.44988 1.15607 7.56446 1.09827 7.67908 1.09827C7.851 1.04046 7.96559 1.04046 8.13751 0.982658C8.30943 0.924855 8.42409 0.924856 8.59601 0.924856C8.71062 0.924856 8.76789 0.867052 8.88251 0.867052C8.8252 0.924856 8.76794 0.982659 8.71063 1.04046C6.41837 3.3526 5.15758 6.41618 5.04297 9.65318H0.802307C0.859614 8.49711 1.08884 7.45665 1.48999 6.47399ZM7.67908 18.9595C7.56446 18.9595 7.50719 18.9017 7.39258 18.9017C7.33527 18.9017 7.27794 18.8439 7.16333 18.8439C7.04872 18.7861 6.87682 18.7283 6.76221 18.6705C6.64759 18.6127 6.53294 18.5549 6.36102 18.4971C6.24641 18.4393 6.18914 18.4393 6.07452 18.3815C4.41263 17.5723 2.97996 16.3006 2.06305 14.7399C2.00574 14.6243 1.94842 14.5087 1.89111 14.3931C1.83381 14.2197 1.71917 14.104 1.66187 13.9306C1.60456 13.815 1.5473 13.6994 1.48999 13.5838C1.08884 12.6012 0.859614 11.5607 0.802307 10.4046H4.98566C5.10027 13.6416 6.36106 16.7052 8.65332 19.0173C8.71063 19.0751 8.76789 19.1329 8.8252 19.1908C8.71058 19.1908 8.596 19.1908 8.48138 19.1329C8.19485 19.1329 7.9083 19.0751 7.67908 18.9595ZM18.9112 11.9075C18.8539 12.0809 18.8539 12.2543 18.7966 12.4277C18.7393 12.7168 18.6246 12.948 18.5673 13.237C18.3954 13.6416 18.2235 14.0462 18.0516 14.4509C17.9943 14.5665 17.9369 14.6821 17.8796 14.7977C17.8796 14.7977 17.8796 14.8555 17.8223 14.8555C17.7077 15.0867 17.5358 15.2601 17.4212 15.4913C16.6189 16.5896 15.5874 17.5145 14.384 18.2081C14.1547 18.3237 13.9255 18.4393 13.639 18.5549C13.0659 18.7861 12.5502 18.9595 11.9198 19.1329C11.7479 19.1908 11.6332 19.1908 11.4613 19.2486C11.404 19.2486 11.3467 19.2486 11.2894 19.2486C11.2321 19.2486 11.1748 19.2486 11.1748 19.2486C11.2321 19.1908 11.2894 19.1329 11.3467 19.0751C13.6389 16.763 14.8997 13.6994 15.0143 10.4624H19.1404C19.1404 10.8671 19.0831 11.2139 19.0258 11.6185C18.9685 11.6763 18.9685 11.7919 18.9112 11.9075Z" fill="#7E7E7E"/>
</svg>